PathFileType	4	(X/Y/Z)	OpenSim_Sub08_CSStiffKnee_Gyro.trc
DataRate	CameraRate	NumFrames	NumMarkers	Units	OrigDataRate	OrigDataStartFrame	OrigNumFrames
100	100	40	8	m	100	3962	5282
Frame#	Time	torso_imu_offset_imu	pelvis_imu_offset_imu	tibia_r_imu_offset_imu	femur_r_imu_offset_imu	tibia_l_imu_offset_imu	femur_l_imu_offset_imu	toes_r_imu_offset_imu	toes_l_imu_offset_imu
				X1	Y1	Z1	X2	Y2	Z2	X3	Y3	Z3	X4	Y4	Z4	X5	Y5	Z5	X6	Y6	Z6	X7	Y7	Z7	X8		Y8	Z8	

3962	39.61000000	0.20799608	0.35469679	0.02127036	-0.15532591	-0.12947110	0.09914277	0.02775653	-0.76621908	-0.70906986	-0.48087036	-0.72402721	-0.69168903	0.33980709	0.19476540	1.97021529	-0.43503222	0.26834307	0.34006092	1.71692960	-2.57272907	-0.46607554	-0.30842195	-2.85442064	0.58774714
3963	39.62000000	0.21590824	0.34456619	0.09418591	-0.30286924	0.11033296	0.11242858	0.45064360	-0.67182528	-0.35448487	-0.19296519	-0.65934382	-0.63934853	0.28989164	0.16482473	2.12632000	-0.59790729	0.24439294	0.15409838	0.97831009	-2.77015117	-0.74881406	-0.59770170	-3.31192954	0.70736903
3964	39.63000000	0.21860695	0.35387194	0.06475099	-0.54225825	0.32645090	0.13541527	2.19972247	-0.51857228	-0.52394430	0.21158837	-0.49717977	-0.61051359	0.27500611	0.11312520	2.38151496	-0.73048185	0.24544494	-0.09412957	-0.10730748	-2.62833186	-0.62979609	-0.98062000	-3.81727193	0.77961863
3965	39.64000000	0.22522182	0.39657316	-0.13254425	-0.79615676	0.36377919	0.17894045	3.02101341	-0.44396835	-1.17389842	0.53189847	-0.24862697	-0.55061437	0.37769394	0.07695924	2.59030304	-0.78619780	0.28011270	-0.34543821	-0.10743606	-2.16324478	-0.42036169	-1.31795068	-4.47741435	0.80544610
3966	39.65000000	0.21604401	0.46904016	-0.28143913	-0.95022957	0.19321248	0.26716543	2.91237128	-0.47981871	-1.83511900	0.59377664	-0.04641308	-0.34498631	0.53331840	-0.03042878	2.72906676	-0.81657969	0.33745716	-0.58659533	-0.04586617	-1.68366402	-0.13920553	-1.48806767	-5.25769453	0.74381274
3967	39.66000000	0.21093053	0.55475593	-0.35792737	-0.94656897	-0.09319374	0.36423920	2.47265647	-0.53136457	-2.05531307	0.52201724	-0.05120096	-0.05310087	0.89432923	-0.13635349	2.86306030	-0.83774345	0.42567680	-0.80115447	-0.04094465	-1.54268275	0.13011530	-1.36891178	-6.19268541	0.38561345
3968	39.67000000	0.18781176	0.59193572	-0.39385001	-0.77645119	-0.36198592	0.39503890	1.57332010	-0.68732862	-1.68923148	0.51606641	-0.11176558	0.13462669	1.39168317	-0.05576014	3.03141516	-0.90358902	0.56076927	-1.06919104	-0.71986712	-1.75895096	0.28665535	-0.58723834	-6.92954022	-0.00276478
3969	39.68000000	0.08809854	0.54653892	-0.30438121	-0.46512538	-0.49851048	0.35455396	0.42761875	-0.77870718	-1.07274153	0.46176737	-0.04218896	0.02740599	1.48913445	0.12305319	3.21739868	-0.98312935	0.78736148	-1.39679062	-1.20156074	-1.67789851	0.35438407	-0.25547474	-7.17977385	0.18182042
3970	39.69000000	0.01143982	0.47511911	-0.26212739	-0.09649402	-0.44071305	0.32622425	-0.48589597	-0.87928729	-0.72710954	0.03285936	-0.00145895	-0.38994129	1.27086178	0.18705927	3.36476435	-0.99842669	1.03763217	-1.69211773	0.99276935	-0.92956561	0.15545349	-0.13620971	-7.24839464	0.46348547
3971	39.70000000	0.00870204	0.39497191	-0.32604484	0.17968322	-0.21478244	0.34191416	-1.03535610	-1.19705667	-0.62464993	-0.79325131	-0.16424386	-0.90278322	1.14302867	0.19284050	3.39061666	-0.92339739	1.21453422	-2.02460059	1.42011735	-0.79922143	0.03454072	1.37836732	-7.05903011	0.87770434
3972	39.71000000	0.04569440	0.26872087	-0.30347376	0.31084037	0.06292842	0.38449397	-1.58840799	-1.19083279	-0.41752236	-1.51063913	-0.47359735	-1.31523583	0.73081403	0.17343750	3.26250201	-0.78911049	1.27021696	-2.30351392	0.54727625	-0.66266618	-0.17723575	1.18442417	-6.78998869	1.75604619
3973	39.72000000	0.09645575	0.14272697	-0.21188501	0.40401678	0.35066000	0.43866047	-1.40380918	-0.83236369	-0.32788649	-1.57789557	-0.70353575	-1.46034384	0.06985934	0.06407926	2.94864155	-0.60208451	1.18540570	-2.39538836	0.73057179	-0.25175935	-0.42045196	1.07046663	-6.34726064	2.27101789
3974	39.73000000	0.12104400	0.02941323	-0.17420956	0.45527964	0.61116421	0.47224203	-0.89257967	-0.65667335	-0.57485041	-0.93405836	-0.63021016	-1.26596583	-0.30111475	-0.11639916	2.47235680	-0.20073058	1.07349186	-2.44642050	0.22171946	-0.25872517	-0.34148439	1.95223707	-5.85905388	2.67648148
3975	39.74000000	0.14423489	-0.08613928	-0.13699486	0.40288927	0.74693579	0.45608829	-0.56875563	-0.65956455	-0.86445136	0.00670401	-0.39207937	-0.84660673	-0.57340645	-0.27984738	1.99411112	0.33306871	1.02612475	-2.50019849	0.41683589	-0.18107634	-0.29522809	0.55590260	-4.74838709	2.90328331
3976	39.75000000	0.16712605	-0.18338263	-0.09227238	0.28720490	0.70613211	0.39122107	0.07020220	-0.59449406	-0.91933153	0.81096507	-0.22382260	-0.44175836	-1.01099544	-0.44660270	1.59872022	0.75608498	1.00445027	-2.45084490	0.23098788	-0.17861758	-0.19618111	-0.96387574	-3.59332587	2.33484276
3977	39.76000000	0.18570215	-0.25319184	-0.04312801	0.16865140	0.48450562	0.28059517	0.42909495	-0.47147233	-0.80115066	1.34237220	-0.15185609	-0.27979107	-0.89316378	-0.43731032	1.34284689	0.95552700	0.94691631	-2.34316892	0.16619535	-0.17654907	-0.13773173	4.73320910	-0.28153341	1.41601688
3978	39.77000000	0.20231623	-0.29577926	0.00122716	0.07084327	0.22933677	0.12464751	0.37779486	-0.45090549	-0.80417169	1.55439152	-0.15590567	-0.37755974	-0.25613457	-0.23238329	1.14130009	0.85490576	0.88907064	-2.27666755	0.14019096	-0.15264037	-0.12088196	5.80195035	2.42070852	0.78827409
3979	39.78000000	0.20629294	-0.34025964	0.00366336	0.02669640	0.06551892	-0.05705444	0.10599748	-0.46995422	-0.90394407	1.37231687	-0.21139136	-0.57348473	0.58891519	-0.41609229	0.66632685	0.63929319	0.82167252	-2.30435551	0.08151543	-0.12867682	-0.11686754	0.25344861	2.63084010	0.65903689
3980	39.79000000	0.22273403	-0.37223870	-0.00571634	0.03847238	0.00624043	-0.22665348	-0.20604776	-0.45451440	-0.88193242	0.83532702	-0.29898965	-0.72231122	1.65693843	-0.74256918	-0.10804701	0.45931846	0.72349828	-2.30231929	0.18080582	-0.07902410	-0.15861587	-0.58749979	3.23900047	0.42815771
3981	39.80000000	0.25322957	-0.35346130	-0.02935424	0.05107784	0.00964000	-0.35613200	-0.42631592	-0.44615594	-0.72415413	0.18141693	-0.35210755	-0.77313913	2.30539472	-0.58804587	-0.83925431	0.22789134	0.63200848	-2.22228606	0.23670715	-0.05236764	-0.20834750	-1.75034433	3.29956879	0.01463314
3982	39.81000000	0.28762319	-0.31491447	-0.06457757	0.07497038	0.00248433	-0.43360815	-0.66412119	-0.41439083	-0.60073693	-0.40257412	-0.36607117	-0.74213963	2.28623881	-0.44780383	-1.41229175	-0.03988471	0.57268293	-2.15291283	0.22014483	-0.01857647	-0.22965790	-1.53103765	3.43052713	-0.52001201
3983	39.82000000	0.31801103	-0.28234744	-0.09314035	0.11381688	0.00390457	-0.45684201	-0.86314346	-0.38901225	-0.61265329	-0.83069683	-0.34493827	-0.66900735	1.76647004	-0.64969791	-1.90728908	-0.31009439	0.49192868	-2.06693325	0.22640240	0.02028738	-0.22869001	0.11626167	3.49378330	-1.13486722
3984	39.83000000	0.32898318	-0.24556029	-0.09973514	0.15124747	0.04722689	-0.43528293	-0.96481371	-0.35132918	-0.64641268	-1.02872817	-0.27393861	-0.63908983	1.18028027	-0.84491038	-2.35960793	-0.59093548	0.38302334	-1.97881255	0.19808209	0.01646421	-0.24133917	0.97284010	3.62327653	-1.49116361
3985	39.84000000	0.32745839	-0.22878304	-0.09349797	0.16762023	0.14133025	-0.40331827	-1.03937281	-0.28477791	-0.59085688	-1.06764385	-0.19665392	-0.66492956	0.70450239	-0.84520881	-2.79877834	-0.90532983	0.32299096	-1.85636343	0.20235201	-0.00218636	-0.26497530	1.39497231	3.96946070	-1.62472658
3986	39.85000000	0.30341478	-0.23977592	-0.09067112	0.14643260	0.23864585	-0.39165586	-0.93585516	-0.24549592	-0.52930817	-1.04886869	-0.13157809	-0.67833093	0.23922529	-0.74570839	-3.21178558	-1.22385521	0.32866731	-1.75701248	0.17189013	0.00344360	-0.28513952	1.25514753	4.53838106	-1.55745019
3987	39.86000000	0.22664613	-0.28811291	-0.04011454	0.09600888	0.31214574	-0.39596055	-0.76318191	-0.21360429	-0.54685770	-0.97201026	-0.09806396	-0.67213811	-0.25872554	-0.63081564	-3.64416320	-1.46234520	0.37078692	-1.64537702	0.12476174	0.03107410	-0.29764900	0.70561383	5.10992882	-1.42353416
3988	39.87000000	0.01932907	-0.48714631	0.07033055	0.03909652	0.37176433	-0.40895058	-0.65116758	-0.19152866	-0.61977104	-0.85147014	-0.09210318	-0.64455276	-0.69509112	-0.56630231	-4.16975362	-1.61078437	0.42442939	-1.55987892	0.16442054	0.04393913	-0.32807072	0.36080065	5.56577741	-1.39322966
3989	39.88000000	-0.24867079	-0.74885598	0.13786746	0.00788403	0.41292156	-0.42134413	-0.55320276	-0.17558945	-0.66557889	-0.69677505	-0.09635458	-0.61892112	-0.96022998	-0.49572512	-4.67108869	-1.66399957	0.47412766	-1.47628442	0.19073210	0.11502188	-0.38505288	0.50111545	5.86516953	-1.51102646
3990	39.89000000	-0.33545742	-0.80443188	0.12377460	0.00577234	0.44879168	-0.42286277	-0.49424000	-0.18192105	-0.62848526	-0.50686580	-0.10760214	-0.60994065	-1.08773459	-0.31569033	-5.02784935	-1.60796049	0.51763837	-1.36149392	0.20029133	0.16095672	-0.46145651	0.97592868	5.96044985	-1.72774449
3991	39.90000000	-0.25606679	-0.71257212	0.08219650	0.02694236	0.47841120	-0.40492591	-0.43009536	-0.18500612	-0.58171730	-0.29725977	-0.10518435	-0.62829939	-1.14676040	-0.06119593	-5.30526290	-1.45150648	0.54452238	-1.27558355	0.29779422	0.19578772	-0.51402084	1.38854570	5.90132194	-1.93681858
3992	39.91000000	-0.11758056	-0.60058265	0.04182552	0.03747710	0.50014738	-0.37075573	-0.32800420	-0.15816949	-0.61129454	-0.12251237	-0.10109921	-0.66505428	-1.11890807	0.14523944	-5.54034305	-1.14030522	0.51815149	-1.11338428	0.30046228	0.23942775	-0.52010487	1.35092115	5.80707741	-2.05945305
3993	39.92000000	0.03985179	-0.46770692	0.01135930	0.03377660	0.50901078	-0.31639168	-0.28590335	-0.14582204	-0.67248303	-0.00645039	-0.10060130	-0.69100976	-1.10110606	0.32637943	-5.76361917	-0.71219664	0.44434180	-0.92566985	0.25670942	0.24645951	-0.50911182	0.96037570	5.75271707	-2.09718872
3994	39.93000000	0.18354389	-0.34133754	-0.01848223	0.02755337	0.49286888	-0.24477007	-0.24844066	-0.12929283	-0.69740845	0.07374280	-0.08270086	-0.70892395	-1.16019381	0.56515059	-5.91239154	-0.24951248	0.34478318	-0.76570745	0.31700317	0.21798984	-0.49013036	0.59474504	5.74441082	-2.13922743
3995	39.94000000	0.31602202	-0.22687203	-0.04609464	0.00882930	0.44746033	-0.16429856	-0.19068126	-0.10305775	-0.68523703	0.07960130	-0.05122416	-0.73775557	-1.07875368	0.84238295	-5.93246742	0.20453106	0.21970846	-0.66220084	0.33153028	0.23064012	-0.46066511	0.45532477	5.75201538	-2.21902706
3996	39.95000000	0.40785540	-0.14027435	-0.05813521	-0.03963621	0.38441306	-0.08886769	-0.15388254	-0.09523353	-0.70175893	0.00378913	-0.02214388	-0.77115165	-0.52939057	1.05494487	-6.00895976	0.64561136	0.01795071	-0.46584406	0.23681621	0.22798744	-0.41098043	0.36510264	5.70157802	-2.25255746
3997	39.96000000	0.44511200	-0.08054409	-0.09107401	-0.11557448	0.27730531	-0.03786180	-0.20861696	-0.07751673	-0.72754737	-0.12082569	0.00283644	-0.77281306	-0.13970964	1.22214946	-6.16308565	1.01067987	-0.19470331	-0.19518705	0.17875051	0.18211214	-0.37952028	0.01423678	5.63476780	-2.19938796
3998	39.97000000	0.46281174	-0.02401480	-0.13656339	-0.21967649	0.15363907	-0.01466138	-0.32292913	-0.03847465	-0.72150848	-0.27500312	0.01678900	-0.75589484	-0.53104910	1.47415218	-6.19870265	1.23282603	-0.30905022	0.06690151	0.17554926	0.17445163	-0.36171120	-0.37944641	5.71470377	-2.11895808
3999	39.98000000	0.45210468	0.01687093	-0.18050256	-0.35817982	0.04926940	-0.02232045	-0.40032777	0.03365897	-0.70676948	-0.44819183	0.02640104	-0.74027206	-1.19980407	1.70621571	-6.06527990	1.31533237	-0.34343492	0.38982526	0.16417433	0.16869185	-0.38025403	-0.69337828	5.92405650	-2.00787822
4000	39.99000000	0.36950704	0.03577008	-0.26228650	-0.51177575	-0.04622415	-0.05539121	-0.40786029	0.06541151	-0.67921248	-0.60076068	0.02189470	-0.73984428	-1.54418398	1.73922697	-5.88164514	1.26076636	-0.33051260	0.70102446	0.18630154	0.13963034	-0.38527717	-0.90883837	5.92710375	-1.82610640
4001	40	0.27162367	0.03277513	-0.16681007	-0.63352231	-0.11904803	-0.10144970	-0.35420670	0.09265124	-0.66486260	-0.68672921	-0.00699848	-0.75965746	-1.44802114	1.60379255	-5.74676916	1.12092745	-0.26403105	0.97757429	0.18014787	0.12021879	-0.36613041	-0.88306351	5.58006938	-1.59840504
